<mxfile host="app.diagrams.net" modified="2023-09-14T14:33:31.468Z" agent="Mozilla/5.0 (Windows NT 10.0; Win64; x64) AppleWebKit/537.36 (KHTML, like Gecko) Chrome/115.0.0.0 Safari/537.36 OPR/101.0.0.0" etag="v9fjMXmUqclwgCMpe1pJ" version="21.7.5" type="github">
  <diagram id="1UlsBG7T2p5n-A1DPiZ7" name="Activity Diagram User">
    <mxGraphModel dx="1049" dy="713" grid="1" gridSize="10" guides="1" tooltips="1" connect="1" arrows="1" fold="1" page="1" pageScale="1" pageWidth="100" pageHeight="900" math="0" shadow="0">
      <root>
        <mxCell id="0" />
        <mxCell id="1" parent="0" />
        <mxCell id="PIOgo4T_Z8zGvDkoq0Dn-1" style="edgeStyle=orthogonalEdgeStyle;rounded=0;orthogonalLoop=1;jettySize=auto;html=1;exitX=0.5;exitY=1;exitDx=0;exitDy=0;entryX=0.5;entryY=0;entryDx=0;entryDy=0;" parent="1" source="PIOgo4T_Z8zGvDkoq0Dn-2" target="PIOgo4T_Z8zGvDkoq0Dn-4" edge="1">
          <mxGeometry relative="1" as="geometry" />
        </mxCell>
        <mxCell id="PIOgo4T_Z8zGvDkoq0Dn-2" value="" style="ellipse;fillColor=strokeColor;html=1;" parent="1" vertex="1">
          <mxGeometry x="410" y="30" width="30" height="30" as="geometry" />
        </mxCell>
        <mxCell id="PIOgo4T_Z8zGvDkoq0Dn-3" style="edgeStyle=orthogonalEdgeStyle;rounded=0;orthogonalLoop=1;jettySize=auto;html=1;exitX=0.5;exitY=1;exitDx=0;exitDy=0;entryX=0.5;entryY=0;entryDx=0;entryDy=0;" parent="1" source="PIOgo4T_Z8zGvDkoq0Dn-4" target="PIOgo4T_Z8zGvDkoq0Dn-7" edge="1">
          <mxGeometry relative="1" as="geometry" />
        </mxCell>
        <mxCell id="PIOgo4T_Z8zGvDkoq0Dn-4" value="USER LOGIN" style="rounded=1;whiteSpace=wrap;html=1;arcSize=50;" parent="1" vertex="1">
          <mxGeometry x="365" y="90" width="120" height="30" as="geometry" />
        </mxCell>
        <mxCell id="PIOgo4T_Z8zGvDkoq0Dn-5" style="edgeStyle=orthogonalEdgeStyle;rounded=0;orthogonalLoop=1;jettySize=auto;html=1;exitX=1;exitY=0.5;exitDx=0;exitDy=0;entryX=1;entryY=0.5;entryDx=0;entryDy=0;" parent="1" source="PIOgo4T_Z8zGvDkoq0Dn-7" target="PIOgo4T_Z8zGvDkoq0Dn-4" edge="1">
          <mxGeometry relative="1" as="geometry">
            <Array as="points">
              <mxPoint x="500" y="180" />
              <mxPoint x="500" y="105" />
            </Array>
          </mxGeometry>
        </mxCell>
        <mxCell id="PIOgo4T_Z8zGvDkoq0Dn-6" style="edgeStyle=orthogonalEdgeStyle;rounded=0;orthogonalLoop=1;jettySize=auto;html=1;exitX=0.5;exitY=1;exitDx=0;exitDy=0;entryX=-0.314;entryY=0.499;entryDx=0;entryDy=0;entryPerimeter=0;" parent="1" source="PIOgo4T_Z8zGvDkoq0Dn-7" target="PIOgo4T_Z8zGvDkoq0Dn-8" edge="1">
          <mxGeometry relative="1" as="geometry">
            <mxPoint x="540" y="220" as="targetPoint" />
          </mxGeometry>
        </mxCell>
        <mxCell id="PIOgo4T_Z8zGvDkoq0Dn-7" value="IS VERIFIED?" style="rhombus;whiteSpace=wrap;html=1;" parent="1" vertex="1">
          <mxGeometry x="380" y="140" width="85" height="80" as="geometry" />
        </mxCell>
        <mxCell id="PIOgo4T_Z8zGvDkoq0Dn-8" value="" style="html=1;points=[];perimeter=orthogonalPerimeter;fillColor=strokeColor;direction=south;" parent="1" vertex="1">
          <mxGeometry x="-21.87" y="280" width="893.75" height="5" as="geometry" />
        </mxCell>
        <mxCell id="PIOgo4T_Z8zGvDkoq0Dn-25" value="YES" style="text;html=1;align=center;verticalAlign=middle;resizable=0;points=[];autosize=1;strokeColor=none;fillColor=none;" parent="1" vertex="1">
          <mxGeometry x="425" y="218" width="50" height="30" as="geometry" />
        </mxCell>
        <mxCell id="PIOgo4T_Z8zGvDkoq0Dn-26" value="NO" style="text;html=1;align=center;verticalAlign=middle;resizable=0;points=[];autosize=1;strokeColor=none;fillColor=none;" parent="1" vertex="1">
          <mxGeometry x="450" y="158" width="40" height="30" as="geometry" />
        </mxCell>
        <mxCell id="PIOgo4T_Z8zGvDkoq0Dn-27" style="edgeStyle=orthogonalEdgeStyle;rounded=0;orthogonalLoop=1;jettySize=auto;html=1;exitX=1;exitY=0.5;exitDx=0;exitDy=0;entryX=0.5;entryY=0;entryDx=0;entryDy=0;exitPerimeter=0;" parent="1" target="PIOgo4T_Z8zGvDkoq0Dn-28" edge="1">
          <mxGeometry relative="1" as="geometry">
            <mxPoint x="425" y="435" as="sourcePoint" />
          </mxGeometry>
        </mxCell>
        <mxCell id="PIOgo4T_Z8zGvDkoq0Dn-28" value="" style="ellipse;html=1;shape=endState;fillColor=strokeColor;" parent="1" vertex="1">
          <mxGeometry x="410" y="560" width="30" height="30" as="geometry" />
        </mxCell>
        <mxCell id="V1Qs4W3TekVSspMRCkW9-32" style="edgeStyle=orthogonalEdgeStyle;rounded=0;orthogonalLoop=1;jettySize=auto;html=1;exitX=1.019;exitY=0.94;exitDx=0;exitDy=0;entryX=0.5;entryY=0;entryDx=0;entryDy=0;exitPerimeter=0;" parent="1" source="PIOgo4T_Z8zGvDkoq0Dn-8" target="V1Qs4W3TekVSspMRCkW9-2" edge="1">
          <mxGeometry relative="1" as="geometry" />
        </mxCell>
        <mxCell id="V1Qs4W3TekVSspMRCkW9-45" style="edgeStyle=orthogonalEdgeStyle;rounded=0;orthogonalLoop=1;jettySize=auto;html=1;exitX=0.5;exitY=1;exitDx=0;exitDy=0;entryX=0.352;entryY=0.939;entryDx=0;entryDy=0;entryPerimeter=0;" parent="1" source="V1Qs4W3TekVSspMRCkW9-2" target="V1Qs4W3TekVSspMRCkW9-11" edge="1">
          <mxGeometry relative="1" as="geometry" />
        </mxCell>
        <mxCell id="V1Qs4W3TekVSspMRCkW9-2" value="USER&lt;br&gt;DASHBOARD" style="rounded=1;whiteSpace=wrap;html=1;arcSize=50;" parent="1" vertex="1">
          <mxGeometry x="-10" y="340" width="85" height="30" as="geometry" />
        </mxCell>
        <mxCell id="V1Qs4W3TekVSspMRCkW9-11" value="" style="html=1;points=[];perimeter=orthogonalPerimeter;fillColor=strokeColor;direction=south;" parent="1" vertex="1">
          <mxGeometry x="-21.87" y="430" width="893.75" height="5" as="geometry" />
        </mxCell>
        <mxCell id="V1Qs4W3TekVSspMRCkW9-34" style="edgeStyle=orthogonalEdgeStyle;rounded=0;orthogonalLoop=1;jettySize=auto;html=1;exitX=1.019;exitY=0.844;exitDx=0;exitDy=0;entryX=0.5;entryY=0;entryDx=0;entryDy=0;exitPerimeter=0;" parent="1" source="PIOgo4T_Z8zGvDkoq0Dn-8" target="V1Qs4W3TekVSspMRCkW9-13" edge="1">
          <mxGeometry relative="1" as="geometry" />
        </mxCell>
        <mxCell id="V1Qs4W3TekVSspMRCkW9-46" style="edgeStyle=orthogonalEdgeStyle;rounded=0;orthogonalLoop=1;jettySize=auto;html=1;exitX=0.5;exitY=1;exitDx=0;exitDy=0;entryX=0.733;entryY=0.846;entryDx=0;entryDy=0;entryPerimeter=0;" parent="1" source="V1Qs4W3TekVSspMRCkW9-13" target="V1Qs4W3TekVSspMRCkW9-11" edge="1">
          <mxGeometry relative="1" as="geometry" />
        </mxCell>
        <mxCell id="V1Qs4W3TekVSspMRCkW9-13" value="SEARCH&lt;br&gt;CATEGORY" style="rounded=1;whiteSpace=wrap;html=1;arcSize=50;" parent="1" vertex="1">
          <mxGeometry x="75" y="370" width="85" height="30" as="geometry" />
        </mxCell>
        <mxCell id="V1Qs4W3TekVSspMRCkW9-36" style="edgeStyle=orthogonalEdgeStyle;rounded=0;orthogonalLoop=1;jettySize=auto;html=1;exitX=-0.314;exitY=0.749;exitDx=0;exitDy=0;entryX=0.5;entryY=0;entryDx=0;entryDy=0;exitPerimeter=0;" parent="1" source="PIOgo4T_Z8zGvDkoq0Dn-8" target="V1Qs4W3TekVSspMRCkW9-14" edge="1">
          <mxGeometry relative="1" as="geometry" />
        </mxCell>
        <mxCell id="V1Qs4W3TekVSspMRCkW9-50" style="edgeStyle=orthogonalEdgeStyle;rounded=0;orthogonalLoop=1;jettySize=auto;html=1;exitX=0.5;exitY=1;exitDx=0;exitDy=0;entryX=-0.029;entryY=0.748;entryDx=0;entryDy=0;entryPerimeter=0;" parent="1" source="V1Qs4W3TekVSspMRCkW9-14" target="V1Qs4W3TekVSspMRCkW9-11" edge="1">
          <mxGeometry relative="1" as="geometry" />
        </mxCell>
        <mxCell id="V1Qs4W3TekVSspMRCkW9-14" value="SELECT&lt;br&gt;PRODUCT" style="rounded=1;whiteSpace=wrap;html=1;arcSize=50;" parent="1" vertex="1">
          <mxGeometry x="160" y="340" width="85" height="30" as="geometry" />
        </mxCell>
        <mxCell id="V1Qs4W3TekVSspMRCkW9-37" style="edgeStyle=orthogonalEdgeStyle;rounded=0;orthogonalLoop=1;jettySize=auto;html=1;exitX=1.019;exitY=0.647;exitDx=0;exitDy=0;entryX=0.5;entryY=0;entryDx=0;entryDy=0;exitPerimeter=0;" parent="1" source="PIOgo4T_Z8zGvDkoq0Dn-8" target="V1Qs4W3TekVSspMRCkW9-15" edge="1">
          <mxGeometry relative="1" as="geometry" />
        </mxCell>
        <mxCell id="V1Qs4W3TekVSspMRCkW9-49" style="edgeStyle=orthogonalEdgeStyle;rounded=0;orthogonalLoop=1;jettySize=auto;html=1;exitX=0.5;exitY=1;exitDx=0;exitDy=0;entryX=-0.219;entryY=0.647;entryDx=0;entryDy=0;entryPerimeter=0;" parent="1" source="V1Qs4W3TekVSspMRCkW9-15" target="V1Qs4W3TekVSspMRCkW9-11" edge="1">
          <mxGeometry relative="1" as="geometry" />
        </mxCell>
        <mxCell id="V1Qs4W3TekVSspMRCkW9-15" value="ADD TO&lt;br&gt;CART" style="rounded=1;whiteSpace=wrap;html=1;arcSize=50;" parent="1" vertex="1">
          <mxGeometry x="250" y="370" width="85" height="30" as="geometry" />
        </mxCell>
        <mxCell id="V1Qs4W3TekVSspMRCkW9-39" style="edgeStyle=orthogonalEdgeStyle;rounded=0;orthogonalLoop=1;jettySize=auto;html=1;exitX=0.638;exitY=0.547;exitDx=0;exitDy=0;entryX=0.5;entryY=0;entryDx=0;entryDy=0;exitPerimeter=0;" parent="1" source="PIOgo4T_Z8zGvDkoq0Dn-8" target="V1Qs4W3TekVSspMRCkW9-16" edge="1">
          <mxGeometry relative="1" as="geometry" />
        </mxCell>
        <mxCell id="V1Qs4W3TekVSspMRCkW9-51" style="edgeStyle=orthogonalEdgeStyle;rounded=0;orthogonalLoop=1;jettySize=auto;html=1;exitX=0.5;exitY=1;exitDx=0;exitDy=0;entryX=0.352;entryY=0.547;entryDx=0;entryDy=0;entryPerimeter=0;" parent="1" source="V1Qs4W3TekVSspMRCkW9-16" target="V1Qs4W3TekVSspMRCkW9-11" edge="1">
          <mxGeometry relative="1" as="geometry" />
        </mxCell>
        <mxCell id="V1Qs4W3TekVSspMRCkW9-16" value="PAYMENT&lt;br&gt;METHOD" style="rounded=1;whiteSpace=wrap;html=1;arcSize=50;" parent="1" vertex="1">
          <mxGeometry x="340" y="340" width="85" height="30" as="geometry" />
        </mxCell>
        <mxCell id="V1Qs4W3TekVSspMRCkW9-40" style="edgeStyle=orthogonalEdgeStyle;rounded=0;orthogonalLoop=1;jettySize=auto;html=1;exitX=0.638;exitY=0.451;exitDx=0;exitDy=0;entryX=0.5;entryY=0;entryDx=0;entryDy=0;exitPerimeter=0;" parent="1" source="PIOgo4T_Z8zGvDkoq0Dn-8" target="V1Qs4W3TekVSspMRCkW9-26" edge="1">
          <mxGeometry relative="1" as="geometry" />
        </mxCell>
        <mxCell id="V1Qs4W3TekVSspMRCkW9-52" style="edgeStyle=orthogonalEdgeStyle;rounded=0;orthogonalLoop=1;jettySize=auto;html=1;exitX=0.5;exitY=1;exitDx=0;exitDy=0;entryX=-0.41;entryY=0.449;entryDx=0;entryDy=0;entryPerimeter=0;" parent="1" source="V1Qs4W3TekVSspMRCkW9-26" target="V1Qs4W3TekVSspMRCkW9-11" edge="1">
          <mxGeometry relative="1" as="geometry" />
        </mxCell>
        <mxCell id="V1Qs4W3TekVSspMRCkW9-26" value="MAKE&lt;br&gt;PAYMENT" style="rounded=1;whiteSpace=wrap;html=1;arcSize=50;" parent="1" vertex="1">
          <mxGeometry x="427.5" y="370" width="85" height="30" as="geometry" />
        </mxCell>
        <mxCell id="V1Qs4W3TekVSspMRCkW9-41" style="edgeStyle=orthogonalEdgeStyle;rounded=0;orthogonalLoop=1;jettySize=auto;html=1;exitX=0.638;exitY=0.355;exitDx=0;exitDy=0;entryX=0.5;entryY=0;entryDx=0;entryDy=0;exitPerimeter=0;" parent="1" source="PIOgo4T_Z8zGvDkoq0Dn-8" target="V1Qs4W3TekVSspMRCkW9-28" edge="1">
          <mxGeometry relative="1" as="geometry" />
        </mxCell>
        <mxCell id="V1Qs4W3TekVSspMRCkW9-53" style="edgeStyle=orthogonalEdgeStyle;rounded=0;orthogonalLoop=1;jettySize=auto;html=1;exitX=0.5;exitY=1;exitDx=0;exitDy=0;entryX=-0.219;entryY=0.354;entryDx=0;entryDy=0;entryPerimeter=0;" parent="1" source="V1Qs4W3TekVSspMRCkW9-28" target="V1Qs4W3TekVSspMRCkW9-11" edge="1">
          <mxGeometry relative="1" as="geometry" />
        </mxCell>
        <mxCell id="V1Qs4W3TekVSspMRCkW9-28" value="PLACE&lt;br&gt;ORDER" style="rounded=1;whiteSpace=wrap;html=1;arcSize=50;" parent="1" vertex="1">
          <mxGeometry x="512.5" y="340" width="85" height="30" as="geometry" />
        </mxCell>
        <mxCell id="V1Qs4W3TekVSspMRCkW9-42" style="edgeStyle=orthogonalEdgeStyle;rounded=0;orthogonalLoop=1;jettySize=auto;html=1;exitX=0.448;exitY=0.256;exitDx=0;exitDy=0;entryX=0.5;entryY=0;entryDx=0;entryDy=0;exitPerimeter=0;" parent="1" source="PIOgo4T_Z8zGvDkoq0Dn-8" target="V1Qs4W3TekVSspMRCkW9-29" edge="1">
          <mxGeometry relative="1" as="geometry" />
        </mxCell>
        <mxCell id="V1Qs4W3TekVSspMRCkW9-54" style="edgeStyle=orthogonalEdgeStyle;rounded=0;orthogonalLoop=1;jettySize=auto;html=1;exitX=0.5;exitY=1;exitDx=0;exitDy=0;entryX=0.924;entryY=0.256;entryDx=0;entryDy=0;entryPerimeter=0;" parent="1" source="V1Qs4W3TekVSspMRCkW9-29" target="V1Qs4W3TekVSspMRCkW9-11" edge="1">
          <mxGeometry relative="1" as="geometry" />
        </mxCell>
        <mxCell id="V1Qs4W3TekVSspMRCkW9-29" value="ORDER&lt;br&gt;HISTORY" style="rounded=1;whiteSpace=wrap;html=1;arcSize=50;" parent="1" vertex="1">
          <mxGeometry x="600" y="370" width="85" height="30" as="geometry" />
        </mxCell>
        <mxCell id="V1Qs4W3TekVSspMRCkW9-43" style="edgeStyle=orthogonalEdgeStyle;rounded=0;orthogonalLoop=1;jettySize=auto;html=1;exitX=0.638;exitY=0.166;exitDx=0;exitDy=0;entryX=0.5;entryY=0;entryDx=0;entryDy=0;exitPerimeter=0;" parent="1" source="PIOgo4T_Z8zGvDkoq0Dn-8" target="V1Qs4W3TekVSspMRCkW9-30" edge="1">
          <mxGeometry relative="1" as="geometry" />
        </mxCell>
        <mxCell id="V1Qs4W3TekVSspMRCkW9-55" style="edgeStyle=orthogonalEdgeStyle;rounded=0;orthogonalLoop=1;jettySize=auto;html=1;exitX=0.5;exitY=1;exitDx=0;exitDy=0;entryX=0.543;entryY=0.167;entryDx=0;entryDy=0;entryPerimeter=0;" parent="1" source="V1Qs4W3TekVSspMRCkW9-30" target="V1Qs4W3TekVSspMRCkW9-11" edge="1">
          <mxGeometry relative="1" as="geometry" />
        </mxCell>
        <mxCell id="V1Qs4W3TekVSspMRCkW9-30" value="PRODUCT&lt;br&gt;FEEDBACK" style="rounded=1;whiteSpace=wrap;html=1;arcSize=50;" parent="1" vertex="1">
          <mxGeometry x="680" y="340" width="85" height="30" as="geometry" />
        </mxCell>
        <mxCell id="V1Qs4W3TekVSspMRCkW9-44" style="edgeStyle=orthogonalEdgeStyle;rounded=0;orthogonalLoop=1;jettySize=auto;html=1;exitX=1.59;exitY=0.072;exitDx=0;exitDy=0;entryX=0.5;entryY=0;entryDx=0;entryDy=0;exitPerimeter=0;" parent="1" source="PIOgo4T_Z8zGvDkoq0Dn-8" target="V1Qs4W3TekVSspMRCkW9-31" edge="1">
          <mxGeometry relative="1" as="geometry" />
        </mxCell>
        <mxCell id="V1Qs4W3TekVSspMRCkW9-57" style="edgeStyle=orthogonalEdgeStyle;rounded=0;orthogonalLoop=1;jettySize=auto;html=1;exitX=0.5;exitY=1;exitDx=0;exitDy=0;entryX=0.162;entryY=0.071;entryDx=0;entryDy=0;entryPerimeter=0;" parent="1" source="V1Qs4W3TekVSspMRCkW9-31" target="V1Qs4W3TekVSspMRCkW9-11" edge="1">
          <mxGeometry relative="1" as="geometry" />
        </mxCell>
        <mxCell id="V1Qs4W3TekVSspMRCkW9-31" value="RETURN&lt;br&gt;PRODUCT" style="rounded=1;whiteSpace=wrap;html=1;arcSize=50;" parent="1" vertex="1">
          <mxGeometry x="765" y="370" width="85" height="30" as="geometry" />
        </mxCell>
      </root>
    </mxGraphModel>
  </diagram>
</mxfile>
